PathFileType	4	(X/Y/Z)	s08c0101.trc
DataRate	CameraRate	NumFrames	NumMarkers	Units	OrigDataRate	OrigDataStartFrame	OrigNumFrames
200	200	4	50	mm	200	500	2000
Frame#	Time	racr			lacr			c7			jug			rlel			rdr			llel			ldr			s2			lic			ric			lasi			rasi			rpsi			lpsi			rgt			lgt			rth1			rth2			rth3			rth4			rlfc			rmfc			rsh1			rsh2			rsh3			rsh4			rlmal			rmmal			rcal			rtoe			rmt5			lth1			lth2			lth4			lth3			llfc			lmfc			llmal			lmmal			lcal			lmt5			lsh1			lsh2			lsh3			lsh4			ltoe			SBIKE			LBIKE			RBIKE			
		X1	Y1	Z1	X2	Y2	Z2	X3	Y3	Z3	X4	Y4	Z4	X5	Y5	Z5	X6	Y6	Z6	X7	Y7	Z7	X8	Y8	Z8	X9	Y9	Z9	X10	Y10	Z10	X11	Y11	Z11	X12	Y12	Z12	X13	Y13	Z13	X14	Y14	Z14	X15	Y15	Z15	X16	Y16	Z16	X17	Y17	Z17	X18	Y18	Z18	X19	Y19	Z19	X20	Y20	Z20	X21	Y21	Z21	X22	Y22	Z22	X23	Y23	Z23	X24	Y24	Z24	X25	Y25	Z25	X26	Y26	Z26	X27	Y27	Z27	X28	Y28	Z28	X29	Y29	Z29	X30	Y30	Z30	X31	Y31	Z31	X32	Y32	Z32	X33	Y33	Z33	X34	Y34	Z34	X35	Y35	Z35	X36	Y36	Z36	X37	Y37	Z37	X38	Y38	Z38	X39	Y39	Z39	X40	Y40	Z40	X41	Y41	Z41	X42	Y42	Z42	X43	Y43	Z43	X44	Y44	Z44	X45	Y45	Z45	X46	Y46	Z46	X47	Y47	Z47	X48	Y48	Z48	X49	Y49	Z49	X50	Y50	Z50	
500	2.5000	584.453670	1351.344800	-113.841288	550.974054	1389.901788	-392.869935	527.575655	1423.252180	-240.303117	531.711843	1265.175245	-263.584257	600.597279	1107.697689	22.792085	793.391315	892.491174	-57.161350	576.378526	1123.644522	-496.675942	791.689831	922.550330	-444.631822	-39.218928	1229.577278	-176.250239	93.494404	1253.616210	-345.190588	149.531121	1192.559800	-41.664805	133.827166	1229.643491	-320.470666	156.236244	1144.413914	-83.555309	5.879218	1258.743899	-122.662884	-11.510343	1283.689805	-209.686870	50.006101	1082.867508	-23.548507	46.752265	1159.337929	-391.661933	147.221819	950.693586	-21.823962	213.018473	890.774943	-25.154304	239.848599	808.882554	-36.686209	242.926393	911.019459	-31.474582	300.623953	706.374400	-51.260299	285.460341	701.820038	-161.431635	222.795975	598.797820	-23.168162	210.257871	512.149101	-46.017845	157.773824	444.639213	-54.276754	238.920104	505.979878	-73.716143	99.849713	340.068667	-63.558034	127.524779	349.942106	-150.866494	26.181324	352.026071	-114.785539	263.494841	178.007034	-111.042648	173.703902	200.792280	-40.251001	145.161812	1066.889532	-415.554761	226.275910	1035.523023	-423.550209	248.699848	1063.154140	-413.166201	281.630528	966.324170	-432.769600	372.827796	863.556616	-418.615613	386.838826	840.740320	-311.454437	273.045975	458.261271	-399.943795	294.442555	481.845295	-315.376796	209.754574	411.720838	-359.626284	421.123773	424.368524	-430.548287	350.606254	735.632975	-436.694937	347.878432	651.997480	-415.444227	305.114158	575.312534	-413.384709	370.529685	651.447473	-383.108791	489.023339	482.847786	-366.423369	-138.609279	945.342151	-229.375037	18.533380	79.882190	-428.706842	18.891484	80.182854	-31.317972	
501	2.5050	584.504725	1349.480713	-113.782808	550.678833	1388.613264	-392.824533	527.576663	1421.650299	-240.497384	531.494995	1263.572568	-263.811934	600.257371	1106.262206	23.649792	793.926210	892.840923	-56.900216	575.382834	1122.057739	-496.608492	791.418655	922.353158	-444.349116	-39.145032	1227.719754	-176.088577	94.724302	1251.596480	-345.876907	149.286914	1190.823581	-41.559806	134.499236	1228.195785	-320.345871	155.806155	1142.848238	-83.263084	6.605763	1256.533592	-120.959125	-11.492639	1281.755657	-209.627639	49.803648	1081.307330	-22.737336	47.434210	1156.799937	-391.518742	148.419158	950.728601	-20.536518	214.943173	891.633083	-24.265177	242.545212	809.911073	-34.843334	244.564446	912.250089	-31.084887	303.953340	708.016214	-49.449190	289.105751	703.673754	-159.907560	224.538959	601.705414	-22.184219	210.427952	515.362618	-45.391248	156.751045	448.841830	-53.993058	239.168383	508.820946	-72.795118	96.906934	345.727588	-63.702585	124.776708	355.442853	-150.801839	23.201292	358.277970	-115.047403	259.348672	182.735601	-110.983867	169.643924	205.987354	-40.258657	145.343128	1063.550817	-415.232380	226.136175	1031.421119	-422.949288	248.757907	1058.918496	-412.839135	280.927369	961.723534	-431.797984	371.564399	858.763659	-417.643912	385.485015	835.891965	-310.513563	276.753867	451.952617	-400.123180	297.100122	475.600913	-316.513064	213.868799	404.920639	-359.782215	425.204854	418.697793	-430.387077	350.657406	730.366181	-436.044593	349.015791	646.697573	-415.049889	307.237751	569.380954	-413.304964	371.725961	646.310959	-382.641200	492.744441	477.575589	-366.185306	-138.603280	945.332693	-229.241752	18.550627	79.880869	-428.691236	18.896590	80.162964	-31.312197	
502	2.5100	584.764013	1347.525543	-113.766289	550.526861	1387.427414	-392.737875	527.719185	1420.045022	-240.622784	531.480217	1261.991072	-264.125856	599.780856	1104.748727	24.468500	794.528137	893.019070	-55.977836	574.555197	1120.429749	-496.389065	791.213324	922.166374	-444.058341	-38.971661	1226.336610	-175.021305	96.065944	1249.705751	-346.446622	149.130558	1189.444121	-41.620157	135.291979	1226.687346	-320.241213	155.458634	1141.397149	-83.041303	6.768184	1254.857436	-120.614376	-11.249781	1279.971936	-209.723938	50.034989	1079.777641	-21.902617	48.344298	1154.426966	-391.510534	149.857283	950.842231	-19.434991	217.168854	892.599812	-23.435064	245.828800	811.244154	-33.678775	246.381317	913.595458	-30.915116	307.125301	709.629678	-47.767514	292.645056	705.280115	-158.228404	226.302909	604.692769	-21.115244	210.656567	518.735617	-44.718510	155.766642	453.232285	-53.675851	239.288944	511.709025	-72.101968	94.121075	351.544528	-63.863778	122.381664	360.972759	-150.878342	20.321146	364.695941	-115.339571	255.434223	187.668954	-110.862229	165.785781	211.648473	-40.260159	145.726269	1060.269829	-414.924644	226.225672	1027.305130	-422.326874	249.060691	1054.664577	-412.428358	280.383557	957.114595	-430.806663	370.462566	853.903722	-416.575118	384.046378	830.990369	-309.700898	280.331317	445.665330	-400.235628	301.232399	469.619187	-315.004871	217.732381	398.400001	-359.979176	429.144350	412.973455	-430.297703	350.854164	725.043790	-435.273808	350.255739	641.276932	-414.603169	309.487311	563.514503	-413.058584	372.914665	641.232478	-382.168102	496.331695	472.020981	-365.937372	-138.635634	945.345748	-229.029819	18.580959	79.880665	-428.680966	18.895405	80.143770	-31.305370	
503	2.5150	585.192067	1345.551663	-113.806482	550.536253	1386.217179	-392.581710	528.015050	1418.426692	-240.534500	531.616833	1260.417246	-264.362218	599.216307	1103.127343	25.154709	794.206872	892.749049	-55.432950	573.864249	1118.863097	-496.030316	791.047624	921.979821	-443.782392	-38.517748	1224.889731	-174.633487	97.517846	1247.940902	-346.920431	148.990553	1188.284134	-42.133477	136.201675	1225.124015	-320.158931	155.265999	1140.143294	-82.796512	7.141919	1253.372322	-120.508750	-10.652555	1278.305689	-210.015025	50.250188	1078.877767	-21.101936	49.616933	1152.221579	-391.451034	151.516265	951.222415	-18.604513	219.505847	893.735355	-22.865160	249.144222	812.619143	-32.576597	248.386866	915.008077	-30.879594	310.414825	711.443254	-45.835741	296.003122	706.938247	-156.527972	227.928726	607.706106	-20.081547	210.935240	522.137666	-44.079249	154.821470	457.678010	-53.371741	238.772918	514.743046	-72.557932	91.374764	357.590375	-64.082092	119.983121	366.656390	-150.944068	17.617962	371.167732	-115.719644	251.721338	192.904447	-110.728850	162.097212	217.444709	-40.251643	146.365289	1057.070580	-414.648803	226.573348	1023.294734	-421.704294	249.592444	1050.481109	-411.989289	280.025048	952.583181	-429.794251	369.414363	849.048629	-415.470613	382.570023	825.809975	-308.814082	283.933725	439.333808	-400.283144	304.976498	463.387701	-314.856376	221.453540	391.871664	-360.177134	432.930630	406.997162	-430.122195	350.962146	719.803480	-434.530934	351.726739	636.024164	-414.379456	311.736163	557.641032	-412.566370	374.052035	636.095931	-381.763848	499.872222	466.258998	-365.647081	-138.603306	945.313855	-228.940268	18.603776	79.875703	-428.672976	18.935304	80.126164	-31.299285	
